<?xml version="1.0" standalone="no"?>
<!DOCTYPE svg PUBLIC "-//W3C//DTD SVG 20010904//EN"
 "http://www.w3.org/TR/2001/REC-SVG-20010904/DTD/svg10.dtd">
<svg version="1.0" xmlns="http://www.w3.org/2000/svg"
 width="56.000000pt" height="18.000000pt" viewBox="0 0 56.000000 18.000000"
 preserveAspectRatio="xMidYMid meet">

<g transform="translate(0.000000,18.000000) scale(0.100000,-0.100000)"
fill="#000000" stroke="none">
<path d="M33 165 c-65 -45 -14 -154 61 -129 36 12 28 27 -14 28 -25 1 -36 6
-38 19 -3 14 4 17 42 17 39 0 46 3 46 20 0 25 -34 60 -58 60 -10 0 -27 -7 -39
-15z m57 -30 c0 -9 -9 -15 -25 -15 -24 0 -32 10 -18 23 12 13 43 7 43 -8z" fill="#1A73E3"/>
<path d="M188 173 c-10 -2 -18 -11 -18 -18 0 -11 6 -12 23 -6 13 5 30 5 38 1
17 -11 13 -14 -31 -26 -28 -8 -36 -15 -38 -39 -4 -34 18 -55 59 -55 43 0 62
26 56 78 -3 24 -9 48 -13 52 -12 12 -55 19 -76 13z m50 -90 c-3 -31 -34 -44
-44 -19 -9 24 3 46 26 46 17 0 21 -5 18 -27z" fill="#1A73E3"/>
<path d="M320 160 c-25 -25 -16 -47 26 -65 46 -19 43 -33 -8 -37 l-43 -4 30
-13 c25 -11 34 -11 55 1 14 7 26 24 28 36 3 18 -4 26 -32 37 -45 19 -47 38 -4
33 37 -4 50 17 16 26 -36 9 -47 7 -68 -14z" fill="#1A73E3"/>
<path d="M430 175 c0 -3 9 -33 20 -66 22 -65 20 -79 -11 -79 -12 0 -19 -5 -16
-12 5 -16 45 -12 65 5 17 14 46 79 57 125 5 25 3 32 -9 32 -10 0 -20 -16 -27
-45 -13 -52 -26 -50 -35 6 -5 29 -11 39 -25 39 -11 0 -19 -2 -19 -5z" fill="#1A73E3"/>
</g>
</svg>
